<svg width="50" height="50" viewBox="0 0 50 50" fill="none" xmlns="http://www.w3.org/2000/svg">
<g clip-path="url(#clip0_2054_1065)">
<rect width="50" height="50" fill="#4E99FF"/>
<path d="M8.89062 14.1562H15.5156C18.0885 14.1562 20 14.6146 21.25 15.5312C22.5 16.4479 23.125 17.8854 23.125 19.8438C23.125 20.6875 23 21.4583 22.75 22.1562C22.5 22.8438 22.151 23.4219 21.7031 23.8906C21.2656 24.3594 20.75 24.6875 20.1562 24.875V25.0312C20.9479 25.2708 21.5885 25.6302 22.0781 26.1094C22.5677 26.5781 22.9271 27.1667 23.1562 27.875C23.3958 28.5729 23.5156 29.3854 23.5156 30.3125C23.5156 31.6875 23.2188 32.875 22.625 33.875C22.0312 34.875 21.1823 35.6458 20.0781 36.1875C18.9844 36.7292 17.6771 37 16.1562 37H8.89062V14.1562ZM14.3281 23.0469H15.5156C16.1927 23.0469 16.7135 22.849 17.0781 22.4531C17.4427 22.0573 17.625 21.4688 17.625 20.6875C17.625 19.9792 17.4427 19.4479 17.0781 19.0938C16.7135 18.7396 16.1615 18.5625 15.4219 18.5625H14.3281V23.0469ZM14.3281 27.2969V32.4844H15.7344C16.474 32.4844 17.026 32.2708 17.3906 31.8438C17.7552 31.4062 17.9375 30.7448 17.9375 29.8594C17.9375 29.3177 17.849 28.8594 17.6719 28.4844C17.5052 28.099 17.25 27.8073 16.9062 27.6094C16.5729 27.401 16.1615 27.2969 15.6719 27.2969H14.3281ZM26.7656 14.1562H33.3906C35.9635 14.1562 37.875 14.6146 39.125 15.5312C40.375 16.4479 41 17.8854 41 19.8438C41 20.6875 40.875 21.4583 40.625 22.1562C40.375 22.8438 40.026 23.4219 39.5781 23.8906C39.1406 24.3594 38.625 24.6875 38.0312 24.875V25.0312C38.8229 25.2708 39.4635 25.6302 39.9531 26.1094C40.4427 26.5781 40.8021 27.1667 41.0312 27.875C41.2708 28.5729 41.3906 29.3854 41.3906 30.3125C41.3906 31.6875 41.0938 32.875 40.5 33.875C39.9062 34.875 39.0573 35.6458 37.9531 36.1875C36.8594 36.7292 35.5521 37 34.0312 37H26.7656V14.1562ZM32.2031 23.0469H33.3906C34.0677 23.0469 34.5885 22.849 34.9531 22.4531C35.3177 22.0573 35.5 21.4688 35.5 20.6875C35.5 19.9792 35.3177 19.4479 34.9531 19.0938C34.5885 18.7396 34.0365 18.5625 33.2969 18.5625H32.2031V23.0469ZM32.2031 27.2969V32.4844H33.6094C34.349 32.4844 34.901 32.2708 35.2656 31.8438C35.6302 31.4062 35.8125 30.7448 35.8125 29.8594C35.8125 29.3177 35.724 28.8594 35.5469 28.4844C35.3802 28.099 35.125 27.8073 34.7812 27.6094C34.4479 27.401 34.0365 27.2969 33.5469 27.2969H32.2031Z" fill="white"/>
</g>
<defs>
<clipPath id="clip0_2054_1065">
<rect width="50" height="50" fill="white"/>
</clipPath>
</defs>
</svg>
