<svg width="97" height="33" viewBox="0 0 97 33" fill="none" xmlns="http://www.w3.org/2000/svg">
<path d="M0.542969 0.722656H5.52344C7.58724 0.722656 9.05859 1.02865 9.9375 1.64062C10.8164 2.2526 11.2559 3.13151 11.2559 4.27734C11.2559 4.90234 11.1419 5.43294 10.9141 5.86914C10.6927 6.30534 10.4095 6.65039 10.0645 6.9043C9.72591 7.1582 9.3776 7.33073 9.01953 7.42188V7.51953C9.41016 7.61719 9.79753 7.77995 10.1816 8.00781C10.5723 8.22917 10.8945 8.56445 11.1484 9.01367C11.4089 9.45638 11.5391 10.0586 11.5391 10.8203C11.5391 11.6862 11.3177 12.4316 10.875 13.0566C10.4388 13.6816 9.8138 14.1634 9 14.502C8.1862 14.834 7.2194 15 6.09961 15H0.542969V0.722656ZM4.40039 6.20117H5.5625C6.20052 6.20117 6.64974 6.07096 6.91016 5.81055C7.17057 5.54362 7.30078 5.22135 7.30078 4.84375C7.30078 4.45312 7.15104 4.1569 6.85156 3.95508C6.55859 3.74674 6.10286 3.64258 5.48438 3.64258H4.40039V6.20117ZM4.40039 9.02344V12.0215H5.75781C6.42839 12.0215 6.89714 11.8783 7.16406 11.5918C7.43099 11.2988 7.56445 10.9342 7.56445 10.498C7.56445 10.2441 7.50586 10.0065 7.38867 9.78516C7.27799 9.55729 7.08594 9.375 6.8125 9.23828C6.53906 9.09505 6.16146 9.02344 5.67969 9.02344H4.40039ZM26.1582 0.722656V9.31641C26.1582 10.5143 25.9303 11.556 25.4746 12.4414C25.0189 13.3203 24.3353 14.0007 23.4238 14.4824C22.5124 14.9577 21.3698 15.1953 19.9961 15.1953C18.0299 15.1953 16.5293 14.6908 15.4941 13.6816C14.459 12.6725 13.9414 11.2467 13.9414 9.4043V0.722656H17.8184V9.10156C17.8184 10.1107 18.0072 10.8431 18.3848 11.2988C18.7624 11.7546 19.319 11.9824 20.0547 11.9824C20.582 11.9824 21.0117 11.8848 21.3438 11.6895C21.6758 11.4876 21.9167 11.1719 22.0664 10.7422C22.2227 10.3125 22.3008 9.75911 22.3008 9.08203V0.722656H26.1582ZM38.4922 10.6641C38.4922 11.4388 38.2969 12.1745 37.9062 12.8711C37.5156 13.5612 36.9069 14.1211 36.0801 14.5508C35.2598 14.9805 34.1986 15.1953 32.8965 15.1953C32.2454 15.1953 31.6725 15.166 31.1777 15.1074C30.6895 15.0488 30.2337 14.9544 29.8105 14.8242C29.3874 14.6875 28.9479 14.5117 28.4922 14.2969V10.8594C29.2669 11.25 30.0482 11.5495 30.8359 11.7578C31.6237 11.9596 32.3366 12.0605 32.9746 12.0605C33.3587 12.0605 33.6712 12.015 33.9121 11.9238C34.1595 11.8327 34.3418 11.709 34.459 11.5527C34.5762 11.39 34.6348 11.2044 34.6348 10.9961C34.6348 10.7487 34.5469 10.5404 34.3711 10.3711C34.2018 10.1953 33.9284 10.013 33.5508 9.82422C33.1732 9.63542 32.6751 9.40104 32.0566 9.12109C31.5293 8.8737 31.0508 8.61979 30.6211 8.35938C30.1979 8.09896 29.8333 7.80273 29.5273 7.4707C29.2279 7.13216 28.9967 6.73828 28.834 6.28906C28.6712 5.83984 28.5898 5.30924 28.5898 4.69727C28.5898 3.7793 28.8145 3.01107 29.2637 2.39258C29.7194 1.76758 30.3509 1.29883 31.1582 0.986328C31.972 0.673828 32.9095 0.517578 33.9707 0.517578C34.9017 0.517578 35.7383 0.621745 36.4805 0.830078C37.2292 1.03841 37.8997 1.27604 38.4922 1.54297L37.3105 4.52148C36.6986 4.24154 36.0964 4.02018 35.5039 3.85742C34.9115 3.68815 34.3613 3.60352 33.8535 3.60352C33.5215 3.60352 33.248 3.64583 33.0332 3.73047C32.8249 3.80859 32.6686 3.91602 32.5645 4.05273C32.4668 4.18945 32.418 4.3457 32.418 4.52148C32.418 4.74284 32.5026 4.94141 32.6719 5.11719C32.8477 5.29297 33.1374 5.48503 33.541 5.69336C33.9512 5.89518 34.5078 6.15885 35.2109 6.48438C35.9076 6.79688 36.5 7.13542 36.9883 7.5C37.4766 7.85807 37.8477 8.29102 38.1016 8.79883C38.362 9.30013 38.4922 9.92188 38.4922 10.6641ZM40.6992 15V0.722656H44.5762V15H40.6992ZM61.2656 15H56.207L50.9922 4.94141H50.9043C50.9368 5.2474 50.9661 5.61523 50.9922 6.04492C51.0182 6.47461 51.041 6.91406 51.0605 7.36328C51.0801 7.80599 51.0898 8.20638 51.0898 8.56445V15H47.6719V0.722656H52.7109L57.9062 10.6445H57.9648C57.9453 10.332 57.9258 9.9707 57.9062 9.56055C57.8867 9.14388 57.8672 8.72396 57.8477 8.30078C57.8346 7.8776 57.8281 7.50326 57.8281 7.17773V0.722656H61.2656V15ZM72.8281 15H64.3516V0.722656H72.8281V3.81836H68.209V6.06445H72.4863V9.16016H68.209V11.8555H72.8281V15ZM84.6641 10.6641C84.6641 11.4388 84.4688 12.1745 84.0781 12.8711C83.6875 13.5612 83.0788 14.1211 82.252 14.5508C81.4316 14.9805 80.3704 15.1953 79.0684 15.1953C78.4173 15.1953 77.8444 15.166 77.3496 15.1074C76.8613 15.0488 76.4056 14.9544 75.9824 14.8242C75.5592 14.6875 75.1198 14.5117 74.6641 14.2969V10.8594C75.4388 11.25 76.2201 11.5495 77.0078 11.7578C77.7956 11.9596 78.5085 12.0605 79.1465 12.0605C79.5306 12.0605 79.8431 12.015 80.084 11.9238C80.3314 11.8327 80.5137 11.709 80.6309 11.5527C80.748 11.39 80.8066 11.2044 80.8066 10.9961C80.8066 10.7487 80.7188 10.5404 80.543 10.3711C80.3737 10.1953 80.1003 10.013 79.7227 9.82422C79.3451 9.63542 78.847 9.40104 78.2285 9.12109C77.7012 8.8737 77.2227 8.61979 76.793 8.35938C76.3698 8.09896 76.0052 7.80273 75.6992 7.4707C75.3997 7.13216 75.1686 6.73828 75.0059 6.28906C74.8431 5.83984 74.7617 5.30924 74.7617 4.69727C74.7617 3.7793 74.9863 3.01107 75.4355 2.39258C75.8913 1.76758 76.5228 1.29883 77.3301 0.986328C78.1439 0.673828 79.0814 0.517578 80.1426 0.517578C81.0736 0.517578 81.9102 0.621745 82.6523 0.830078C83.401 1.03841 84.0716 1.27604 84.6641 1.54297L83.4824 4.52148C82.8704 4.24154 82.2682 4.02018 81.6758 3.85742C81.0833 3.68815 80.5332 3.60352 80.0254 3.60352C79.6934 3.60352 79.4199 3.64583 79.2051 3.73047C78.9967 3.80859 78.8405 3.91602 78.7363 4.05273C78.6387 4.18945 78.5898 4.3457 78.5898 4.52148C78.5898 4.74284 78.6745 4.94141 78.8438 5.11719C79.0195 5.29297 79.3092 5.48503 79.7129 5.69336C80.123 5.89518 80.6797 6.15885 81.3828 6.48438C82.0794 6.79688 82.6719 7.13542 83.1602 7.5C83.6484 7.85807 84.0195 8.29102 84.2734 8.79883C84.5339 9.30013 84.6641 9.92188 84.6641 10.6641ZM96.207 10.6641C96.207 11.4388 96.0117 12.1745 95.6211 12.8711C95.2305 13.5612 94.6217 14.1211 93.7949 14.5508C92.9746 14.9805 91.9134 15.1953 90.6113 15.1953C89.9603 15.1953 89.3874 15.166 88.8926 15.1074C88.4043 15.0488 87.9486 14.9544 87.5254 14.8242C87.1022 14.6875 86.6628 14.5117 86.207 14.2969V10.8594C86.9818 11.25 87.763 11.5495 88.5508 11.7578C89.3385 11.9596 90.0514 12.0605 90.6895 12.0605C91.0736 12.0605 91.3861 12.015 91.627 11.9238C91.8743 11.8327 92.0566 11.709 92.1738 11.5527C92.291 11.39 92.3496 11.2044 92.3496 10.9961C92.3496 10.7487 92.2617 10.5404 92.0859 10.3711C91.9167 10.1953 91.6432 10.013 91.2656 9.82422C90.888 9.63542 90.39 9.40104 89.7715 9.12109C89.2441 8.8737 88.7656 8.61979 88.3359 8.35938C87.9128 8.09896 87.5482 7.80273 87.2422 7.4707C86.9427 7.13216 86.7116 6.73828 86.5488 6.28906C86.3861 5.83984 86.3047 5.30924 86.3047 4.69727C86.3047 3.7793 86.5293 3.01107 86.9785 2.39258C87.4342 1.76758 88.0658 1.29883 88.873 0.986328C89.6868 0.673828 90.6243 0.517578 91.6855 0.517578C92.6165 0.517578 93.4531 0.621745 94.1953 0.830078C94.944 1.03841 95.6146 1.27604 96.207 1.54297L95.0254 4.52148C94.4134 4.24154 93.8112 4.02018 93.2188 3.85742C92.6263 3.68815 92.0762 3.60352 91.5684 3.60352C91.2363 3.60352 90.9629 3.64583 90.748 3.73047C90.5397 3.80859 90.3835 3.91602 90.2793 4.05273C90.1816 4.18945 90.1328 4.3457 90.1328 4.52148C90.1328 4.74284 90.2174 4.94141 90.3867 5.11719C90.5625 5.29297 90.8522 5.48503 91.2559 5.69336C91.666 5.89518 92.2227 6.15885 92.9258 6.48438C93.6224 6.79688 94.2148 7.13542 94.7031 7.5C95.1914 7.85807 95.5625 8.29102 95.8164 8.79883C96.0768 9.30013 96.207 9.92188 96.207 10.6641ZM0.542969 17.7227H5.52344C7.58724 17.7227 9.05859 18.0286 9.9375 18.6406C10.8164 19.2526 11.2559 20.1315 11.2559 21.2773C11.2559 21.9023 11.1419 22.4329 10.9141 22.8691C10.6927 23.3053 10.4095 23.6504 10.0645 23.9043C9.72591 24.1582 9.3776 24.3307 9.01953 24.4219V24.5195C9.41016 24.6172 9.79753 24.7799 10.1816 25.0078C10.5723 25.2292 10.8945 25.5645 11.1484 26.0137C11.4089 26.4564 11.5391 27.0586 11.5391 27.8203C11.5391 28.6862 11.3177 29.4316 10.875 30.0566C10.4388 30.6816 9.8138 31.1634 9 31.502C8.1862 31.834 7.2194 32 6.09961 32H0.542969V17.7227ZM4.40039 23.2012H5.5625C6.20052 23.2012 6.64974 23.071 6.91016 22.8105C7.17057 22.5436 7.30078 22.2214 7.30078 21.8438C7.30078 21.4531 7.15104 21.1569 6.85156 20.9551C6.55859 20.7467 6.10286 20.6426 5.48438 20.6426H4.40039V23.2012ZM4.40039 26.0234V29.0215H5.75781C6.42839 29.0215 6.89714 28.8783 7.16406 28.5918C7.43099 28.2988 7.56445 27.9342 7.56445 27.498C7.56445 27.2441 7.50586 27.0065 7.38867 26.7852C7.27799 26.5573 7.08594 26.375 6.8125 26.2383C6.53906 26.0951 6.16146 26.0234 5.67969 26.0234H4.40039ZM27.3789 24.8418C27.3789 25.9421 27.2454 26.9447 26.9785 27.8496C26.7181 28.748 26.3079 29.5228 25.748 30.1738C25.1882 30.8249 24.4688 31.3262 23.5898 31.6777C22.7109 32.0228 21.6595 32.1953 20.4355 32.1953C19.2376 32.1953 18.1992 32.0228 17.3203 31.6777C16.4479 31.3262 15.7285 30.8281 15.1621 30.1836C14.5957 29.5326 14.1758 28.7546 13.9023 27.8496C13.6289 26.9447 13.4922 25.9355 13.4922 24.8223C13.4922 23.3379 13.7363 22.0488 14.2246 20.9551C14.7194 19.8548 15.4811 19.0052 16.5098 18.4062C17.5384 17.8008 18.8535 17.498 20.4551 17.498C22.0827 17.498 23.4043 17.8008 24.4199 18.4062C25.4421 19.0117 26.1908 19.8646 26.666 20.9648C27.1413 22.0651 27.3789 23.3574 27.3789 24.8418ZM17.5547 24.8418C17.5547 25.7012 17.6523 26.4401 17.8477 27.0586C18.043 27.6771 18.3522 28.1523 18.7754 28.4844C19.1986 28.8164 19.752 28.9824 20.4355 28.9824C21.1452 28.9824 21.7083 28.8164 22.125 28.4844C22.5482 28.1523 22.8509 27.6771 23.0332 27.0586C23.222 26.4401 23.3164 25.7012 23.3164 24.8418C23.3164 23.5527 23.1016 22.5339 22.6719 21.7852C22.2422 21.0365 21.5033 20.6621 20.4551 20.6621C19.7585 20.6621 19.1953 20.8314 18.7656 21.1699C18.3424 21.5085 18.0332 21.9902 17.8379 22.6152C17.6491 23.2402 17.5547 23.9824 17.5547 24.8418ZM43.3164 24.8418C43.3164 25.9421 43.1829 26.9447 42.916 27.8496C42.6556 28.748 42.2454 29.5228 41.6855 30.1738C41.1257 30.8249 40.4062 31.3262 39.5273 31.6777C38.6484 32.0228 37.597 32.1953 36.373 32.1953C35.1751 32.1953 34.1367 32.0228 33.2578 31.6777C32.3854 31.3262 31.666 30.8281 31.0996 30.1836C30.5332 29.5326 30.1133 28.7546 29.8398 27.8496C29.5664 26.9447 29.4297 25.9355 29.4297 24.8223C29.4297 23.3379 29.6738 22.0488 30.1621 20.9551C30.6569 19.8548 31.4186 19.0052 32.4473 18.4062C33.4759 17.8008 34.791 17.498 36.3926 17.498C38.0202 17.498 39.3418 17.8008 40.3574 18.4062C41.3796 19.0117 42.1283 19.8646 42.6035 20.9648C43.0788 22.0651 43.3164 23.3574 43.3164 24.8418ZM33.4922 24.8418C33.4922 25.7012 33.5898 26.4401 33.7852 27.0586C33.9805 27.6771 34.2897 28.1523 34.7129 28.4844C35.1361 28.8164 35.6895 28.9824 36.373 28.9824C37.0827 28.9824 37.6458 28.8164 38.0625 28.4844C38.4857 28.1523 38.7884 27.6771 38.9707 27.0586C39.1595 26.4401 39.2539 25.7012 39.2539 24.8418C39.2539 23.5527 39.0391 22.5339 38.6094 21.7852C38.1797 21.0365 37.4408 20.6621 36.3926 20.6621C35.696 20.6621 35.1328 20.8314 34.7031 21.1699C34.2799 21.5085 33.9707 21.9902 33.7754 22.6152C33.5866 23.2402 33.4922 23.9824 33.4922 24.8418ZM58.0918 32H53.7363L50.9141 26.541L49.7715 27.2246V32H45.8945V17.7227H49.7715V23.9238C49.9342 23.6113 50.1198 23.2988 50.3281 22.9863C50.543 22.6738 50.7513 22.3776 50.9531 22.0977L53.9512 17.7227H58.1699L53.668 24.1191L58.0918 32Z" fill="#231F20"/>
</svg>
