<svg width="12" height="18" viewBox="0 0 12 18" fill="none" xmlns="http://www.w3.org/2000/svg">
<path d="M1.69029 17.5864L1.69019 17.5863L0.419341 16.3154C-0.0997601 15.7963 -0.0996265 14.9571 0.419249 14.4438L0.419359 14.4437L5.83454 9.01725L5.85177 8.99998L5.83452 8.98274L0.413717 3.56193C-0.105384 3.04283 -0.10525 2.20363 0.413625 1.69027L0.413755 1.69014L1.68457 0.413704L1.68461 0.413666C2.20371 -0.105398 3.04289 -0.105251 3.55623 0.413612L3.55632 0.413704L11.2039 8.06131L11.204 8.0614C11.7286 8.58045 11.7286 9.41965 11.2096 9.93869L3.56195 17.5863C3.04284 18.1054 2.20364 18.1053 1.69029 17.5864Z" fill="#4E99FF" stroke="#4E99FF" stroke-width="0.0488281"/>
</svg>
