<svg width="19" height="15" viewBox="0 0 19 15" fill="none" xmlns="http://www.w3.org/2000/svg">
<path d="M1.57856 2.7551H17.7067C18.0493 2.7551 18.327 2.48101 18.327 2.14286V0.612245C18.327 0.274094 18.0493 0 17.7067 0H1.57856C1.23596 0 0.958252 0.274094 0.958252 0.612245V2.14286C0.958252 2.48101 1.23596 2.7551 1.57856 2.7551ZM1.57856 8.87755H17.7067C18.0493 8.87755 18.327 8.60346 18.327 8.26531V6.73469C18.327 6.39654 18.0493 6.12245 17.7067 6.12245H1.57856C1.23596 6.12245 0.958252 6.39654 0.958252 6.73469V8.26531C0.958252 8.60346 1.23596 8.87755 1.57856 8.87755ZM1.57856 15H17.7067C18.0493 15 18.327 14.7259 18.327 14.3878V12.8571C18.327 12.519 18.0493 12.2449 17.7067 12.2449H1.57856C1.23596 12.2449 0.958252 12.519 0.958252 12.8571V14.3878C0.958252 14.7259 1.23596 15 1.57856 15Z" fill="#231F20"/>
</svg>
